<svg width="47pt" height="35pt" viewBox="0 0 47 35" xmlns="http://www.w3.org/2000/svg"><style>g{fill:black}@media(prefers-color-scheme: dark){g{fill:white}}</style><g stroke-linecap="round" fill-rule="evenodd"><path d="M 36.05 0 L 22.25 27.15 C 22.154 27.343 21.871 27.582 21.672 27.599 A 0.259 0.259 0 0 1 21.65 27.6 A 0.159 0.159 0 0 1 21.579 27.581 C 21.394 27.489 21.188 27.077 21.1 26.9 A 1604.032 1604.032 0 0 1 18.308 20.925 C 15.984 15.916 13.66 10.768 11.739 5.981 A 122.756 122.756 0 0 1 9.5 0 L 0.7 0 L 0.35 0.35 L 0.25 1.45 L 3.65 2.4 C 4.1 2.55 4.45 2.8 4.7 3.15 C 5.1 3.65 5.1 4.35 5 4.95 C 3.65 14.85 1.9 24.7 0 34.5 L 0.35 34.65 L 4.1 33.35 C 4.8 24.75 5.65 16.15 6.8 7.65 A 1.249 1.249 0 0 1 6.847 7.442 C 6.894 7.296 6.966 7.193 7.054 7.14 A 0.282 0.282 0 0 1 7.2 7.1 A 0.342 0.342 0 0 1 7.393 7.17 C 7.452 7.212 7.511 7.269 7.566 7.335 A 2.122 2.122 0 0 1 7.75 7.6 C 10.643 13.477 14.843 23.614 18.414 32.2 A 3630.489 3630.489 0 0 0 19.35 34.45 L 20.85 34.45 L 35.15 6.75 C 35.281 6.532 35.487 6.39 35.638 6.357 A 0.294 0.294 0 0 1 35.7 6.35 C 35.95 6.35 36.1 6.7 36.1 7.1 C 36.199 10.36 36.59 22.403 36.6 23.9 A 8.004 8.004 0 0 1 36.6 23.95 L 36.6 33.05 A 0.807 0.807 0 0 0 36.621 33.222 C 36.718 33.655 37.133 34.325 37.7 34.5 C 38.35 34.7 39.05 34.8 39.75 34.8 A 9.617 9.617 0 0 0 41.431 34.632 C 43.087 34.334 44.928 33.69 46.55 33.1 L 46.55 31.9 A 32.481 32.481 0 0 0 46.075 31.957 C 45.367 32.046 44.561 32.161 44.005 32.192 A 4.657 4.657 0 0 1 43.75 32.2 C 43.15 32.2 42.55 32 42.05 31.65 C 41.35 31.1 40.95 30.25 40.85 29.4 A 182.005 182.005 0 0 1 40.1 17.375 A 380.467 380.467 0 0 1 39.95 5.35 A 109.474 109.474 0 0 1 39.951 4.687 C 39.958 3.554 39.998 2.231 40.235 1.59 A 1.564 1.564 0 0 1 40.25 1.55 C 40.443 1.116 40.868 0.775 41.168 0.617 A 1.594 1.594 0 0 1 41.2 0.6 L 41.2 0 L 36.05 0 Z" vector-effect="non-scaling-stroke"/></g></svg>