<svg width="175pt" height="47pt" viewBox="0 0 175 47" xmlns="http://www.w3.org/2000/svg"><g id="fontsvg1709394682017" stroke-linecap="round" fill-rule="evenodd" fill="rgb(255 127 39)"><path d="M 36.05 0.605 L 22.25 27.755 C 22.154 27.948 21.871 28.187 21.672 28.204 A 0.259 0.259 0 0 1 21.65 28.205 A 0.159 0.159 0 0 1 21.579 28.186 C 21.394 28.094 21.188 27.682 21.1 27.505 A 1604.032 1604.032 0 0 1 18.308 21.53 C 15.984 16.521 13.66 11.373 11.739 6.586 A 122.756 122.756 0 0 1 9.5 0.605 L 0.7 0.605 L 0.35 0.955 L 0.25 2.055 L 3.65 3.005 C 4.1 3.155 4.45 3.405 4.7 3.755 C 5.1 4.255 5.1 4.955 5 5.555 C 3.65 15.455 1.9 25.305 0 35.105 L 0.35 35.255 L 4.1 33.955 C 4.8 25.355 5.65 16.755 6.8 8.255 A 1.249 1.249 0 0 1 6.847 8.047 C 6.894 7.901 6.966 7.798 7.054 7.745 A 0.282 0.282 0 0 1 7.2 7.705 A 0.342 0.342 0 0 1 7.393 7.775 C 7.452 7.817 7.511 7.874 7.566 7.94 A 2.122 2.122 0 0 1 7.75 8.205 C 10.643 14.082 14.843 24.218 18.414 32.805 A 3630.489 3630.489 0 0 0 19.35 35.055 L 20.85 35.055 L 35.15 7.355 C 35.281 7.137 35.487 6.995 35.638 6.962 A 0.294 0.294 0 0 1 35.7 6.955 C 35.95 6.955 36.1 7.305 36.1 7.705 C 36.199 10.965 36.59 23.008 36.6 24.505 A 8.004 8.004 0 0 1 36.6 24.555 L 36.6 33.655 A 0.807 0.807 0 0 0 36.621 33.827 C 36.718 34.26 37.133 34.93 37.7 35.105 C 38.35 35.305 39.05 35.405 39.75 35.405 A 9.617 9.617 0 0 0 41.431 35.237 C 43.087 34.939 44.928 34.295 46.55 33.705 L 46.55 32.505 A 32.481 32.481 0 0 0 46.075 32.562 C 45.367 32.651 44.561 32.766 44.005 32.797 A 4.657 4.657 0 0 1 43.75 32.805 C 43.15 32.805 42.55 32.605 42.05 32.255 C 41.35 31.705 40.95 30.855 40.85 30.005 A 182.005 182.005 0 0 1 40.1 17.98 A 380.467 380.467 0 0 1 39.95 5.955 A 109.474 109.474 0 0 1 39.951 5.292 C 39.958 4.159 39.998 2.836 40.235 2.195 A 1.564 1.564 0 0 1 40.25 2.155 C 40.443 1.721 40.868 1.38 41.168 1.222 A 1.594 1.594 0 0 1 41.2 1.205 L 41.2 0.605 L 36.05 0.605 Z M 109.5 15.605 L 109.1 15.205 C 109.1 11.372 109.1 7.295 109.216 3.583 A 137.836 137.836 0 0 1 109.3 1.405 L 109 1.055 L 101.1 1.905 L 100.85 2.105 L 100.85 3.005 A 40.681 40.681 0 0 0 100.86 3.007 C 102.107 3.284 103.985 3.646 104.58 4.171 A 0.7 0.7 0 0 1 104.7 4.305 C 105.133 4.905 105.322 5.594 105.43 6.283 A 18.656 18.656 0 0 1 105.55 7.305 A 19.364 19.364 0 0 1 105.61 8.173 C 105.7 9.97 105.7 12.911 105.7 15.105 C 105.65 21.705 105.35 28.305 105 34.905 L 105.3 35.405 L 108.9 34.305 C 108.9 28.905 109 23.405 109 17.905 C 110.25 17.005 111.2 16.405 112.6 15.705 C 113.6 15.305 115 14.905 116.1 14.905 C 117.2 14.905 118.05 15.205 118.9 15.805 A 3.877 3.877 0 0 1 120.012 17.628 A 5.007 5.007 0 0 1 120.15 18.205 A 19.176 19.176 0 0 1 120.359 20.172 C 120.367 20.32 120.374 20.468 120.38 20.616 A 31.616 31.616 0 0 1 120.4 21.805 A 43.772 43.772 0 0 1 120.391 22.591 C 120.355 24.55 120.217 27.89 120.201 30.246 A 62.577 62.577 0 0 0 120.2 30.655 A 8.079 8.079 0 0 0 120.552 33.067 A 5.788 5.788 0 0 0 121.1 34.305 C 121.6 35.105 122.55 35.605 123.5 35.605 A 5.553 5.553 0 0 0 125.186 35.345 C 125.867 35.132 126.501 34.8 127.15 34.405 A 14.003 14.003 0 0 0 130.006 32.194 C 130.307 31.9 130.609 31.59 130.92 31.262 A 75.032 75.032 0 0 0 131.35 30.805 L 131.35 30.255 L 130.7 29.755 C 130.1 30.305 129.45 30.855 128.5 31.405 C 127.8 31.755 127 32.005 126.2 32.005 C 125.6 32.005 125.05 31.705 124.7 31.205 A 3.743 3.743 0 0 1 124.282 30.253 C 124.131 29.73 124.081 29.199 124.05 28.705 A 12.766 12.766 0 0 1 124.019 28.167 C 123.97 26.927 123.991 24.773 123.998 22.971 A 224.211 224.211 0 0 0 124 22.105 A 591.7 591.7 0 0 0 123.999 20.938 C 123.996 19.355 123.981 17.56 123.907 16.328 A 15.743 15.743 0 0 0 123.85 15.605 A 4.098 4.098 0 0 0 123.08 13.507 A 2.656 2.656 0 0 0 122.8 13.205 A 4.52 4.52 0 0 0 121.616 12.387 C 120.849 12.008 120.027 11.805 119.55 11.805 C 118.136 11.805 116.942 12.099 115.748 12.498 A 30.702 30.702 0 0 0 115.15 12.705 C 113.15 13.505 111.3 14.505 109.5 15.605 Z M 156.6 27.505 L 155.75 27.455 L 152.9 30.755 C 153.3 31.805 153.95 32.755 154.75 33.555 C 156.297 35.149 158.503 35.776 160.709 35.848 A 13.495 13.495 0 0 0 161.15 35.855 C 165.1 35.855 168.95 34.305 171.75 31.505 C 173.6 29.655 174.8 27.255 174.8 24.655 A 6.644 6.644 0 0 0 174.638 23.231 A 9.016 9.016 0 0 0 172.2 18.855 A 4.625 4.625 0 0 0 171.772 18.465 C 170.79 17.663 169.018 16.661 167.513 15.954 A 23.781 23.781 0 0 0 166.85 15.655 C 164.9 14.805 162.75 13.755 161.4 12.405 A 6.758 6.758 0 0 1 159.201 7.839 A 5.118 5.118 0 0 1 159.2 7.755 A 5.914 5.914 0 0 1 160.286 4.119 A 4.295 4.295 0 0 1 160.65 3.705 C 161.7 2.605 163.2 1.855 164.75 1.855 C 166.3 1.855 167.85 2.405 169 3.505 C 170.05 4.555 170.5 6.055 170.85 7.455 L 171.5 7.605 L 174.65 4.805 C 174.15 3.855 173.6 2.955 172.85 2.205 A 8.161 8.161 0 0 0 167.611 0.079 C 167.293 0.05 166.973 0.031 166.652 0.019 A 23.764 23.764 0 0 0 165.8 0.005 C 162.75 0.005 159.75 0.955 157.55 3.105 C 155.9 4.805 155.2 7.155 155.2 9.505 C 155.2 11.805 156.1 14.055 157.75 15.705 C 159.05 17.005 162.05 18.405 164.35 19.405 C 165.75 20.005 167.6 21.255 168.65 22.355 A 7.746 7.746 0 0 1 170.023 24.547 C 170.155 24.871 170.258 25.195 170.323 25.507 A 3.46 3.46 0 0 1 170.4 26.205 C 170.4 28.055 169.8 30.005 168.5 31.305 C 167.1 32.655 165.15 33.555 163.25 33.555 A 5.956 5.956 0 0 1 162.799 33.538 A 6.597 6.597 0 0 1 158.7 31.655 A 8.13 8.13 0 0 1 156.905 28.463 C 156.847 28.295 156.792 28.125 156.738 27.956 A 33.792 33.792 0 0 1 156.6 27.505 Z M 144.6 2.805 L 148 2.105 L 148.1 0.905 L 147.75 0.605 L 135.25 0.605 L 134.9 0.905 L 134.9 1.955 L 138.5 2.855 A 0.702 0.702 0 0 1 138.889 3.145 C 139.19 3.56 139.3 4.297 139.3 4.705 L 139.3 30.305 A 39.91 39.91 0 0 1 139.241 32.425 C 139.111 34.835 138.785 37.244 138.4 38.555 A 26.294 26.294 0 0 1 137.755 40.545 C 137.428 41.408 137.049 42.174 136.544 42.843 A 6.433 6.433 0 0 1 136.25 43.205 C 135.514 43.987 134.356 45.022 133.319 45.728 A 10.44 10.44 0 0 1 133.05 45.905 L 133.75 46.805 A 13.431 13.431 0 0 0 134.57 46.342 C 136.118 45.402 137.968 43.953 139.139 42.897 A 21.006 21.006 0 0 0 139.35 42.705 C 141.05 41.055 142.2 38.905 142.9 36.655 A 17.051 17.051 0 0 0 143.533 32.099 A 56.643 56.643 0 0 0 143.55 30.555 L 143.55 4.705 A 2.668 2.668 0 0 1 143.781 3.611 C 143.888 3.378 144.026 3.179 144.187 3.034 A 0.977 0.977 0 0 1 144.6 2.805 Z M 85.7 13.055 L 85.4 13.355 L 80.2 13.355 L 79.9 13.655 L 79.55 14.855 L 79.8 15.105 L 85.4 15.105 L 85.7 15.455 L 85.7 24.955 A 340.305 340.305 0 0 0 85.705 27.095 C 85.734 31.579 85.896 32.663 86.658 33.747 A 6.653 6.653 0 0 0 86.85 34.005 A 3.567 3.567 0 0 0 88.235 35.097 C 88.97 35.436 89.778 35.555 90.45 35.555 A 7.877 7.877 0 0 0 94.137 34.465 A 17.326 17.326 0 0 0 94.25 34.405 C 95.85 33.555 97.3 32.405 98.65 31.155 L 98.3 30.405 L 97.7 30.305 C 96.388 31.136 94.847 32.081 93.644 32.306 A 2.71 2.71 0 0 1 93.15 32.355 A 2.792 2.792 0 0 1 91.276 31.726 A 3.232 3.232 0 0 1 90.9 31.355 A 3.083 3.083 0 0 1 90.362 30.467 C 89.835 29.216 89.657 27.323 89.612 25.744 A 31.778 31.778 0 0 1 89.6 24.855 L 89.6 15.405 L 89.9 15.105 L 95.85 15.105 L 96.15 14.855 L 96.55 13.555 L 96.3 13.355 L 89.9 13.355 L 89.6 13.105 A 69.472 69.472 0 0 1 89.745 9.72 C 89.769 9.353 89.796 8.988 89.824 8.623 A 345.98 345.98 0 0 1 90.15 4.805 L 89.8 4.555 L 85.6 6.005 A 20.69 20.69 0 0 1 85.641 6.781 C 85.7 8.331 85.7 10.921 85.7 13.055 Z M 68.15 32.555 L 68.9 32.755 A 8.696 8.696 0 0 0 69.13 33.793 C 69.257 34.206 69.439 34.586 69.746 34.951 A 3.468 3.468 0 0 0 69.75 34.955 A 2.116 2.116 0 0 0 71.034 35.644 C 71.274 35.688 71.518 35.705 71.75 35.705 A 3.652 3.652 0 0 0 72.715 35.551 C 74.193 35.137 76.122 33.967 77.703 33.014 A 210.036 210.036 0 0 1 78.05 32.805 L 77.7 31.605 A 28.929 28.929 0 0 1 77.429 31.707 C 76.406 32.085 75.092 32.505 74.45 32.505 A 1.901 1.901 0 0 1 74.234 32.493 C 73.848 32.448 73.463 32.284 73.231 31.979 A 1.043 1.043 0 0 1 73.15 31.855 C 72.65 31.055 72.6 30.155 72.6 29.255 C 72.45 23.605 72.5 17.905 72.8 12.255 L 72.55 12.005 L 69.9 13.555 A 9.494 9.494 0 0 0 67.225 12.249 C 66.288 11.955 65.35 11.805 64.55 11.805 C 61.6 11.805 58.7 12.655 56.55 14.705 C 53.7 17.505 52.65 21.505 52.65 25.455 C 52.601 28.315 53.086 31.272 54.922 33.511 A 8.378 8.378 0 0 0 55 33.605 A 6.438 6.438 0 0 0 59.603 35.695 A 7.87 7.87 0 0 0 60 35.705 C 61.4 35.705 62.7 35.305 63.95 34.805 A 20.843 20.843 0 0 0 66.772 33.405 A 38.764 38.764 0 0 0 68.15 32.555 Z M 68.8 18.655 L 68.8 30.155 C 67.838 30.876 67.339 31.181 66.369 31.648 A 32.773 32.773 0 0 1 66.25 31.705 A 7.494 7.494 0 0 1 65.72 31.926 C 65.164 32.135 64.51 32.315 63.93 32.379 A 3.907 3.907 0 0 1 63.5 32.405 A 11.294 11.294 0 0 1 62.564 32.368 C 61.39 32.27 60.216 31.961 59.333 31.237 A 3.713 3.713 0 0 1 58.55 30.355 C 57.528 28.799 57.217 26.928 57.16 25.056 A 23.24 23.24 0 0 1 57.15 24.355 C 57.3 19.305 58.65 16.505 59.85 15.455 C 61.15 14.205 62.8 13.555 64.6 13.555 C 65.85 13.555 67.1 14.255 68 15.205 A 3.107 3.107 0 0 1 68.74 17.043 A 14.153 14.153 0 0 1 68.8 18.655 Z" vector-effect="non-scaling-stroke"/></g></svg>